<svg xmlns="http://www.w3.org/2000/svg" xmlns:xlink="http://www.w3.org/1999/xlink" width="240" height="336" class="card" face="3H" preserveAspectRatio="none" viewBox="-120 -168 240 336"><symbol id="SH3" preserveAspectRatio="xMinYMid" viewBox="-600 -600 1200 1200"><path fill="#828282" d="M0 -300C0 -400 100 -500 200 -500C300 -500 400 -400 400 -250C400 0 0 400 0 500C0 400 -400 0 -400 -250C-400 -400 -300 -500 -200 -500C-100 -500 0 -400 -0 -300Z"/></symbol><symbol id="VH3" preserveAspectRatio="xMinYMid" viewBox="-500 -500 1000 1000"><path fill="none" stroke="#828282" stroke-linecap="square" stroke-miterlimit="1.5" stroke-width="80" d="M-250 -320L-250 -460L200 -460L-110 -80C-100 -90 -50 -120 0 -120C200 -120 250 0 250 150C250 350 170 460 -30 460C-230 460 -260 300 -260 300"/></symbol><rect width="239" height="335" x="-119.5" y="-167.5" fill="#000" stroke="#000" rx="12" ry="12"/><use height="32" x="-114.4" y="-156" xlink:href="#VH3"/><use height="26.769" x="-111.784" y="-119" xlink:href="#SH3"/><use height="70" x="-35" y="-135.501" xlink:href="#SH3"/><use height="70" x="-35" y="-35" xlink:href="#SH3"/><g transform="rotate(180)"><use height="32" x="-114.4" y="-156" xlink:href="#VH3"/><use height="26.769" x="-111.784" y="-119" xlink:href="#SH3"/><use height="70" x="-35" y="-135.501" xlink:href="#SH3"/></g></svg>