<svg xmlns="http://www.w3.org/2000/svg" xmlns:xlink="http://www.w3.org/1999/xlink" width="240" height="336" class="card" face="4D" preserveAspectRatio="none" viewBox="-120 -168 240 336"><symbol id="SD4" preserveAspectRatio="xMinYMid" viewBox="-600 -600 1200 1200"><path fill="#828282" d="M-400 0C-350 0 0 -450 0 -500C0 -450 350 0 400 0C350 0 0 450 0 500C0 450 -350 0 -400 0Z"/></symbol><symbol id="VD4" preserveAspectRatio="xMinYMid" viewBox="-500 -500 1000 1000"><path fill="none" stroke="#828282" stroke-linecap="square" stroke-miterlimit="1.5" stroke-width="80" d="M50 460L250 460M150 460L150 -460L-300 175L-300 200L270 200"/></symbol><rect width="239" height="335" x="-119.5" y="-167.5" fill="#000" stroke="#000" rx="12" ry="12"/><use height="32" x="-114.4" y="-156" xlink:href="#VD4"/><use height="26.769" x="-111.784" y="-119" xlink:href="#SD4"/><use height="70" x="-87.501" y="-135.501" xlink:href="#SD4"/><use height="70" x="17.501" y="-135.501" xlink:href="#SD4"/><g transform="rotate(180)"><use height="32" x="-114.4" y="-156" xlink:href="#VD4"/><use height="26.769" x="-111.784" y="-119" xlink:href="#SD4"/><use height="70" x="-87.501" y="-135.501" xlink:href="#SD4"/><use height="70" x="17.501" y="-135.501" xlink:href="#SD4"/></g></svg>