<svg xmlns="http://www.w3.org/2000/svg" xmlns:xlink="http://www.w3.org/1999/xlink" width="240" height="336" class="card" face="JC" preserveAspectRatio="none" viewBox="-120 -168 240 336"><symbol id="SCJ" preserveAspectRatio="xMinYMid" viewBox="-600 -600 1200 1200"><path fill="#7f732e" d="M30 150C35 385 85 400 130 500L-130 500C-85 400 -35 385 -30 150A10 10 0 0 0 -50 150A210 210 0 1 1 -124 -51A10 10 0 0 0 -110 -65A230 230 0 1 1 110 -65A10 10 0 0 0 124 -51A210 210 0 1 1 50 150A10 10 0 0 0 30 150Z"/></symbol><symbol id="VCJ" preserveAspectRatio="xMinYMid" viewBox="-500 -500 1000 1000"><path fill="none" stroke="#7f732e" stroke-linecap="square" stroke-miterlimit="1.5" stroke-width="80" d="M50 -460L250 -460M150 -460L150 250A100 100 0 0 1 -250 250L-250 220"/></symbol><rect width="239" height="335" x="-119.5" y="-167.5" fill="#000" stroke="#000" rx="12" ry="12"/><use height="164.8" x="-82.4" y="-82.4" xlink:href="#VCJ"/><use height="32" x="-114.4" y="-156" xlink:href="#VCJ"/><use height="26.769" x="-111.784" y="-119" xlink:href="#SCJ"/><g transform="rotate(180)"><use height="32" x="-114.4" y="-156" xlink:href="#VCJ"/><use height="26.769" x="-111.784" y="-119" xlink:href="#SCJ"/></g></svg>