<svg xmlns="http://www.w3.org/2000/svg" xmlns:xlink="http://www.w3.org/1999/xlink" width="240" height="336" class="card" face="KD" preserveAspectRatio="none" viewBox="-120 -168 240 336"><symbol id="SDK" preserveAspectRatio="xMinYMid" viewBox="-600 -600 1200 1200"><path fill="#828282" d="M-400 0C-350 0 0 -450 0 -500C0 -450 350 0 400 0C350 0 0 450 0 500C0 450 -350 0 -400 0Z"/></symbol><symbol id="VDK" preserveAspectRatio="xMinYMid" viewBox="-500 -500 1000 1000"><path fill="none" stroke="#828282" stroke-linecap="square" stroke-miterlimit="1.5" stroke-width="80" d="M-285 -460L-85 -460M-185 -460L-185 460M-285 460L-85 460M85 -460L285 -460M185 -440L-170 155M85 460L285 460M185 440L-10 -70"/></symbol><rect width="239" height="335" x="-119.5" y="-167.5" fill="#000" stroke="#000" rx="12" ry="12"/><use height="164.8" x="-82.4" y="-82.4" xlink:href="#VDK"/><use height="32" x="-114.4" y="-156" xlink:href="#VDK"/><use height="26.769" x="-111.784" y="-119" xlink:href="#SDK"/><g transform="rotate(180)"><use height="32" x="-114.4" y="-156" xlink:href="#VDK"/><use height="26.769" x="-111.784" y="-119" xlink:href="#SDK"/></g></svg>