<svg xmlns="http://www.w3.org/2000/svg" xmlns:xlink="http://www.w3.org/1999/xlink" width="240" height="336" class="card" face="QD" preserveAspectRatio="none" viewBox="-120 -168 240 336"><symbol id="SDQ" preserveAspectRatio="xMinYMid" viewBox="-600 -600 1200 1200"><path fill="#828282" d="M-400 0C-350 0 0 -450 0 -500C0 -450 350 0 400 0C350 0 0 450 0 500C0 450 -350 0 -400 0Z"/></symbol><symbol id="VDQ" preserveAspectRatio="xMinYMid" viewBox="-500 -500 1000 1000"><path fill="none" stroke="#828282" stroke-linecap="square" stroke-miterlimit="1.5" stroke-width="80" d="M-260 100C40 100 -40 460 260 460M-175 0L-175 -285A175 175 0 0 1 175 -285L175 285A175 175 0 0 1 -175 285Z"/></symbol><rect width="239" height="335" x="-119.5" y="-167.5" fill="#000" stroke="#000" rx="12" ry="12"/><use height="164.8" x="-82.4" y="-82.4" xlink:href="#VDQ"/><use height="32" x="-114.4" y="-156" xlink:href="#VDQ"/><use height="26.769" x="-111.784" y="-119" xlink:href="#SDQ"/><g transform="rotate(180)"><use height="32" x="-114.4" y="-156" xlink:href="#VDQ"/><use height="26.769" x="-111.784" y="-119" xlink:href="#SDQ"/></g></svg>